<?xml version="1.0" encoding="utf-8"?>
<!-- Generator: Adobe Illustrator 21.1.0, SVG Export Plug-In . SVG Version: 6.00 Build 0)  -->
<svg version="1.1" id="Layer_1" xmlns="http://www.w3.org/2000/svg" xmlns:xlink="http://www.w3.org/1999/xlink" x="0px" y="0px"
	 viewBox="0 0 50 50" style="enable-background:new 0 0 50 50;" xml:space="preserve">
<g>
	<path d="M25.6,3.2c-12.3,0-22.4,10-22.4,22.3C3.2,37.8,13.2,47.9,25.6,48C37.9,48,47.9,38,48,25.6C48.1,13.3,38,3.2,25.6,3.2z
		 M19.9,36.1c-1.6,0-3.2,0-4.9,0c0-5,0-10,0-15.1c1.7,0,3.3,0,4.9,0C19.9,26,19.9,31,19.9,36.1z M17.3,18.8c-1.6,0-2.8-1.1-2.8-2.6
		c0-1.5,1.3-2.7,2.9-2.6c1.6,0,2.8,1.1,2.8,2.7C20.2,17.7,19,18.8,17.3,18.8z M38.1,36.1c-1.6,0-3.2,0-5,0c0-0.3,0-0.7,0-1
		c0-2.2,0-4.4,0-6.6c0-0.5,0-0.9,0-1.4c-0.2-1.7-1.1-2.6-2.6-2.5c-1.4,0.1-2.6,1.2-2.6,2.7c0,2.5,0,5,0,7.5c0,0.4,0,0.8,0,1.3
		c-1.7,0-3.3,0-5,0c0-5,0-10.1,0-15.1c1.6,0,3.2,0,5,0c0,0.6,0,1.2,0,2c1.6-2.2,3.6-2.8,5.9-2.3c2.5,0.5,4.2,2.4,4.4,5.4
		C38.2,29.4,38.1,32.7,38.1,36.1z"/>
</g>
</svg>
